<?xml version="1.0" standalone="no"?><!DOCTYPE svg PUBLIC "-//W3C//DTD SVG 1.1//EN" "http://www.w3.org/Graphics/SVG/1.1/DTD/svg11.dtd"><svg t="1523144742107" class="icon" style="" viewBox="0 0 1024 1024" version="1.1" xmlns="http://www.w3.org/2000/svg" p-id="4129" xmlns:xlink="http://www.w3.org/1999/xlink" width="64" height="64"><defs><style type="text/css"></style></defs><path d="M746.612364 775.866182c12.846545 0 23.272727-10.426182 23.272727-23.272727 0-142.091636-115.677091-257.698909-257.885091-257.698909-0.069818 0-0.128 0.011636-0.197818 0.011636-0.058182 0-0.128-0.011636-0.186182-0.011636-55.261091 0-100.212364-44.869818-100.212364-100.014545 0-55.261091 44.951273-100.200727 100.212364-100.200727 55.249455 0 100.200727 44.951273 100.200727 100.200727 0 17.640727-4.619636 34.955636-13.381818 50.082909-6.434909 11.124364-2.641455 25.367273 8.482909 31.802182 11.124364 6.446545 25.367273 2.653091 31.802182-8.482909 12.846545-22.202182 19.642182-47.581091 19.642182-73.402182 0-80.919273-65.826909-146.746182-146.746182-146.746182-80.930909 0-146.757818 65.826909-146.757818 146.746182 0 80.814545 65.838545 146.56 146.757818 146.56 0.058182 0 0.128-0.023273 0.186182-0.023273 0.069818 0 0.128 0.023273 0.197818 0.023273 116.538182 0 211.339636 94.72 211.339636 211.153455C723.339636 765.44 733.765818 775.866182 746.612364 775.866182z" p-id="4130"></path><path d="M277.387636 775.866182c12.846545 0 23.272727-10.426182 23.272727-23.272727 0-70.795636 35.223273-136.564364 94.219636-175.965091 10.693818-7.133091 13.579636-21.585455 6.434909-32.267636-7.133091-10.682182-21.585455-13.602909-32.267636-6.434909-71.959273 48.046545-114.920727 128.290909-114.920727 214.667636C254.114909 765.44 264.529455 775.866182 277.387636 775.866182z" p-id="4131"></path><path d="M521.669818 930.909091c-0.174545 0-0.337455 0-0.500364 0-3.048727 0-6.097455 0.046545-9.169455 0.046545C281.006545 930.955636 93.090909 742.993455 93.090909 512c0-114.897455 45.591273-222.068364 128.372364-301.789091 9.262545-8.913455 9.541818-23.645091 0.616727-32.907636-8.925091-9.262545-23.656727-9.530182-32.907636-0.616727C97.198545 265.262545 46.545455 384.337455 46.545455 512c0 256.651636 208.802909 465.454545 465.454545 465.454545 3.397818 0 6.784-0.011636 10.158545-0.081455 12.846545-0.267636 23.051636-10.903273 22.784-23.738182C544.663273 940.951273 534.295273 930.909091 521.669818 930.909091z" p-id="4132"></path><path d="M512 46.545455c-12.846545 0-23.272727 10.426182-23.272727 23.272727s10.426182 23.272727 23.272727 23.272727c230.993455 0 418.909091 187.915636 418.909091 418.909091 0 163.234909-95.883636 312.750545-244.270545 380.893091-11.682909 5.364364-16.791273 19.176727-11.426909 30.859636 3.921455 8.529455 12.357818 13.556364 21.154909 13.556364 3.246545 0 6.551273-0.686545 9.704727-2.129455C870.935273 859.473455 977.454545 693.364364 977.454545 512 977.454545 255.348364 768.651636 46.545455 512 46.545455z" p-id="4133"></path></svg>